# xmcd
# 
# Track frame offsets:
#     150
#     23050
#     42215
#     59315
#     80967
#     104330
#     121127
#     138700
#     155445
# 
# Disc length: 2271
# 
# Revision: 8
# Processed by: cddbd v1.5.2PL0 Copyright (c) Steve Scherf et al.
# Submitted via: fre:ac v1.0.17
# 
DISCID=7608dd09
DTITLE=Huey Lewis and The News - Sports
DYEAR=1983
DGENRE=Rock
TTITLE0=The Heart Of Rock and Roll
TTITLE1=Heart and Soul
TTITLE2=Bad Is Bad
TTITLE3=I Want A New Drug
TTITLE4=Walking On A Thin Line
TTITLE5=Finally Found A Home
TTITLE6=If This Is It
TTITLE7=You Crack Me Up
TTITLE8=Honky Tonk Blues
EXTD=Chrysalis Records, CD#CDP32 1412-2, LP 1983 -> CD 1987
EXTT0=
EXTT1=
EXTT2=
EXTT3=
EXTT4=
EXTT5=
EXTT6=
EXTT7=
EXTT8=
PLAYORDER=
